<?xml version="1.0" encoding="UTF-8" standalone="no"?>
<!-- Created with Inkscape (http://www.inkscape.org/) -->

<svg
   width="1600"
   height="480"
   viewBox="0 0 423.33333 127"
   version="1.1"
   id="svg1"
   inkscape:version="1.3.2 (091e20ef0f, 2023-11-25)"
   sodipodi:docname="aif-logo.svg"
   xmlns:inkscape="http://www.inkscape.org/namespaces/inkscape"
   xmlns:sodipodi="http://sodipodi.sourceforge.net/DTD/sodipodi-0.dtd"
   xmlns:xlink="http://www.w3.org/1999/xlink"
   xmlns="http://www.w3.org/2000/svg"
   xmlns:svg="http://www.w3.org/2000/svg">
  <sodipodi:namedview
     id="namedview1"
     pagecolor="#ffffff"
     bordercolor="#000000"
     borderopacity="0.25"
     inkscape:showpageshadow="2"
     inkscape:pageopacity="0.0"
     inkscape:pagecheckerboard="0"
     inkscape:deskcolor="#d1d1d1"
     inkscape:document-units="mm"
     inkscape:zoom="0.36881313"
     inkscape:cx="806.64156"
     inkscape:cy="249.44882"
     inkscape:window-width="1920"
     inkscape:window-height="1012"
     inkscape:window-x="0"
     inkscape:window-y="0"
     inkscape:window-maximized="1"
     inkscape:current-layer="layer1" />
  <defs
     id="defs1">
    <clipPath
       clipPathUnits="userSpaceOnUse"
       id="clipPath202">
      <path
         d="M 0,595.276 H 841.89 V 0 H 0 Z"
         transform="translate(-247.35683,-352.93171)"
         id="path202" />
    </clipPath>
    <clipPath
       clipPathUnits="userSpaceOnUse"
       id="clipPath204">
      <path
         d="M 0,595.276 H 841.89 V 0 H 0 Z"
         transform="translate(-267.42271,-341.96551)"
         id="path204" />
    </clipPath>
    <clipPath
       clipPathUnits="userSpaceOnUse"
       id="clipPath206">
      <path
         d="M 0,595.276 H 841.89 V 0 H 0 Z"
         transform="translate(-285.95491,-351.36511)"
         id="path206" />
    </clipPath>
    <clipPath
       clipPathUnits="userSpaceOnUse"
       id="clipPath208">
      <path
         d="M 0,595.276 H 841.89 V 0 H 0 Z"
         transform="translate(-300.52028,-354.39821)"
         id="path208" />
    </clipPath>
    <clipPath
       clipPathUnits="userSpaceOnUse"
       id="clipPath210">
      <path
         d="M 0,595.276 H 841.89 V 0 H 0 Z"
         transform="translate(-321.98558,-336.79911)"
         id="path210" />
    </clipPath>
    <clipPath
       clipPathUnits="userSpaceOnUse"
       id="clipPath212">
      <path
         d="M 0,595.276 H 841.89 V 0 H 0 Z"
         id="path212" />
    </clipPath>
    <clipPath
       clipPathUnits="userSpaceOnUse"
       id="clipPath214">
      <path
         d="M 0,595.276 H 841.89 V 0 H 0 Z"
         transform="translate(-344.68463,-340.06571)"
         id="path214" />
    </clipPath>
    <clipPath
       clipPathUnits="userSpaceOnUse"
       id="clipPath216">
      <path
         d="M 0,595.276 H 841.89 V 0 H 0 Z"
         transform="translate(-368.18258,-340.59901)"
         id="path216" />
    </clipPath>
    <clipPath
       clipPathUnits="userSpaceOnUse"
       id="clipPath218">
      <path
         d="M 0,595.276 H 841.89 V 0 H 0 Z"
         transform="translate(-386.98111,-351.36511)"
         id="path218" />
    </clipPath>
    <clipPath
       clipPathUnits="userSpaceOnUse"
       id="clipPath220">
      <path
         d="M 0,595.276 H 841.89 V 0 H 0 Z"
         id="path220" />
    </clipPath>
    <clipPath
       clipPathUnits="userSpaceOnUse"
       id="clipPath222">
      <path
         d="M 0,595.276 H 841.89 V 0 H 0 Z"
         transform="translate(-251.65621,-326.31611)"
         id="path222" />
    </clipPath>
    <clipPath
       clipPathUnits="userSpaceOnUse"
       id="clipPath224">
      <path
         d="M 0,595.276 H 841.89 V 0 H 0 Z"
         transform="translate(-269.62201,-326.31611)"
         id="path224" />
    </clipPath>
    <clipPath
       clipPathUnits="userSpaceOnUse"
       id="clipPath226">
      <path
         d="M 0,595.276 H 841.89 V 0 H 0 Z"
         transform="translate(-291.25388,-312.18361)"
         id="path226" />
    </clipPath>
    <clipPath
       clipPathUnits="userSpaceOnUse"
       id="clipPath228">
      <path
         d="M 0,595.276 H 841.89 V 0 H 0 Z"
         transform="translate(-305.98591,-309.21701)"
         id="path228" />
    </clipPath>
    <clipPath
       clipPathUnits="userSpaceOnUse"
       id="clipPath230">
      <path
         d="M 0,595.276 H 841.89 V 0 H 0 Z"
         transform="translate(-323.21813,-311.98361)"
         id="path230" />
    </clipPath>
    <clipPath
       clipPathUnits="userSpaceOnUse"
       id="clipPath232">
      <path
         d="M 0,595.276 H 841.89 V 0 H 0 Z"
         transform="translate(-341.98381,-308.71691)"
         id="path232" />
    </clipPath>
    <clipPath
       clipPathUnits="userSpaceOnUse"
       id="clipPath234">
      <path
         d="M 0,595.276 H 841.89 V 0 H 0 Z"
         id="path234" />
    </clipPath>
    <clipPath
       clipPathUnits="userSpaceOnUse"
       id="clipPath236">
      <path
         d="M 0,595.276 H 841.89 V 0 H 0 Z"
         transform="translate(-371.88188,-333.14911)"
         id="path236" />
    </clipPath>
    <clipPath
       clipPathUnits="userSpaceOnUse"
       id="clipPath238">
      <path
         d="M 0,595.276 H 841.89 V 0 H 0 Z"
         transform="translate(-381.68093,-326.31611)"
         id="path238" />
    </clipPath>
    <clipPath
       clipPathUnits="userSpaceOnUse"
       id="clipPath240">
      <path
         d="M 0,595.276 H 841.89 V 0 H 0 Z"
         transform="translate(-237.92378,-300.81381)"
         id="path240" />
    </clipPath>
    <clipPath
       clipPathUnits="userSpaceOnUse"
       id="clipPath242">
      <path
         d="M 0,595.276 H 841.89 V 0 H 0 Z"
         id="path242" />
    </clipPath>
    <clipPath
       clipPathUnits="userSpaceOnUse"
       id="clipPath244">
      <path
         d="M 0,595.276 H 841.89 V 0 H 0 Z"
         transform="translate(-254.59321,-293.31271)"
         id="path244" />
    </clipPath>
    <clipPath
       clipPathUnits="userSpaceOnUse"
       id="clipPath246">
      <path
         d="M 0,595.276 H 841.89 V 0 H 0 Z"
         transform="translate(-265.01003,-295.6808)"
         id="path246" />
    </clipPath>
    <clipPath
       clipPathUnits="userSpaceOnUse"
       id="clipPath248">
      <path
         d="M 0,595.276 H 841.89 V 0 H 0 Z"
         transform="translate(-271.36223,-295.6808)"
         id="path248" />
    </clipPath>
    <clipPath
       clipPathUnits="userSpaceOnUse"
       id="clipPath250">
      <path
         d="M 0,595.276 H 841.89 V 0 H 0 Z"
         transform="translate(-281.91398,-291.34291)"
         id="path250" />
    </clipPath>
    <clipPath
       clipPathUnits="userSpaceOnUse"
       id="clipPath252">
      <path
         d="M 0,595.276 H 841.89 V 0 H 0 Z"
         transform="translate(-295.78013,-292.51751)"
         id="path252" />
    </clipPath>
    <clipPath
       clipPathUnits="userSpaceOnUse"
       id="clipPath254">
      <path
         d="M 0,595.276 H 841.89 V 0 H 0 Z"
         transform="translate(-300.49801,-293.31271)"
         id="path254" />
    </clipPath>
    <clipPath
       clipPathUnits="userSpaceOnUse"
       id="clipPath256">
      <path
         d="M 0,595.276 H 841.89 V 0 H 0 Z"
         id="path256" />
    </clipPath>
    <clipPath
       clipPathUnits="userSpaceOnUse"
       id="clipPath258">
      <path
         d="M 0,595.276 H 841.89 V 0 H 0 Z"
         transform="translate(-317.00138,-300.81381)"
         id="path258" />
    </clipPath>
    <clipPath
       clipPathUnits="userSpaceOnUse"
       id="clipPath260">
      <path
         d="M 0,595.276 H 841.89 V 0 H 0 Z"
         transform="translate(-332.79323,-287.89051)"
         id="path260" />
    </clipPath>
    <clipPath
       clipPathUnits="userSpaceOnUse"
       id="clipPath262">
      <path
         d="M 0,595.276 H 841.89 V 0 H 0 Z"
         transform="translate(-337.60133,-293.31271)"
         id="path262" />
    </clipPath>
    <clipPath
       clipPathUnits="userSpaceOnUse"
       id="clipPath264">
      <path
         d="M 0,595.276 H 841.89 V 0 H 0 Z"
         transform="translate(-353.07173,-292.9154)"
         id="path264" />
    </clipPath>
    <clipPath
       clipPathUnits="userSpaceOnUse"
       id="clipPath266">
      <path
         d="M 0,595.276 H 841.89 V 0 H 0 Z"
         transform="translate(-363.75391,-292.55371)"
         id="path266" />
    </clipPath>
    <clipPath
       clipPathUnits="userSpaceOnUse"
       id="clipPath268">
      <path
         d="M 0,595.276 H 841.89 V 0 H 0 Z"
         transform="translate(-366.79853,-286.39051)"
         id="path268" />
    </clipPath>
    <clipPath
       clipPathUnits="userSpaceOnUse"
       id="clipPath270">
      <path
         d="M 0,595.276 H 841.89 V 0 H 0 Z"
         transform="translate(-376.81321,-293.14991)"
         id="path270" />
    </clipPath>
    <clipPath
       clipPathUnits="userSpaceOnUse"
       id="clipPath272">
      <path
         d="M 0,595.276 H 841.89 V 0 H 0 Z"
         transform="translate(-387.64028,-296.00561)"
         id="path272" />
    </clipPath>
    <clipPath
       clipPathUnits="userSpaceOnUse"
       id="clipPath274">
      <path
         d="M 0,595.276 H 841.89 V 0 H 0 Z"
         transform="translate(-395.15641,-297.2348)"
         id="path274" />
    </clipPath>
    <clipPath
       clipPathUnits="userSpaceOnUse"
       id="clipPath276">
      <path
         d="M 0,595.276 H 841.89 V 0 H 0 Z"
         transform="translate(-405.53394,-300.99431)"
         id="path276" />
    </clipPath>
    <clipPath
       clipPathUnits="userSpaceOnUse"
       id="clipPath278">
      <path
         d="M 0,595.276 H 841.89 V 0 H 0 Z"
         transform="translate(-412.60539,-295.6808)"
         id="path278" />
    </clipPath>
    <clipPath
       clipPathUnits="userSpaceOnUse"
       id="clipPath280">
      <path
         d="M 0,595.276 H 841.89 V 0 H 0 Z"
         transform="translate(-417.20634,-297.2348)"
         id="path280" />
    </clipPath>
    <clipPath
       clipPathUnits="userSpaceOnUse"
       id="clipPath282">
      <path
         d="M 0,595.276 H 841.89 V 0 H 0 Z"
         id="path282" />
    </clipPath>
    <clipPath
       clipPathUnits="userSpaceOnUse"
       id="clipPath284">
      <path
         d="M 0,595.276 H 841.89 V 0 H 0 Z"
         transform="translate(-433.91079,-292.51751)"
         id="path284" />
    </clipPath>
    <clipPath
       clipPathUnits="userSpaceOnUse"
       id="clipPath286">
      <path
         d="M 0,595.276 H 841.89 V 0 H 0 Z"
         transform="translate(-443.36941,-291.34291)"
         id="path286" />
    </clipPath>
    <clipPath
       clipPathUnits="userSpaceOnUse"
       id="clipPath288">
      <path
         d="M 0,595.276 H 841.89 V 0 H 0 Z"
         transform="translate(-239.53253,-276.4382)"
         id="path288" />
    </clipPath>
    <clipPath
       clipPathUnits="userSpaceOnUse"
       id="clipPath290">
      <path
         d="M 0,595.276 H 841.89 V 0 H 0 Z"
         id="path290" />
    </clipPath>
    <clipPath
       clipPathUnits="userSpaceOnUse"
       id="clipPath292">
      <path
         d="M 0,595.276 H 841.89 V 0 H 0 Z"
         transform="translate(-255.82501,-274.05281)"
         id="path292" />
    </clipPath>
    <clipPath
       clipPathUnits="userSpaceOnUse"
       id="clipPath294">
      <path
         d="M 0,595.276 H 841.89 V 0 H 0 Z"
         id="path294" />
    </clipPath>
    <clipPath
       clipPathUnits="userSpaceOnUse"
       id="clipPath296">
      <path
         d="M 0,595.276 H 841.89 V 0 H 0 Z"
         transform="translate(-275.01743,-274.4684)"
         id="path296" />
    </clipPath>
    <clipPath
       clipPathUnits="userSpaceOnUse"
       id="clipPath298">
      <path
         d="M 0,595.276 H 841.89 V 0 H 0 Z"
         transform="translate(-278.23313,-274.05281)"
         id="path298" />
    </clipPath>
    <clipPath
       clipPathUnits="userSpaceOnUse"
       id="clipPath300">
      <path
         d="M 0,595.276 H 841.89 V 0 H 0 Z"
         transform="translate(-297.88298,-275.64301)"
         id="path300" />
    </clipPath>
    <clipPath
       clipPathUnits="userSpaceOnUse"
       id="clipPath302">
      <path
         d="M 0,595.276 H 841.89 V 0 H 0 Z"
         transform="translate(-302.60093,-276.4382)"
         id="path302" />
    </clipPath>
    <clipPath
       clipPathUnits="userSpaceOnUse"
       id="clipPath304">
      <path
         d="M 0,595.276 H 841.89 V 0 H 0 Z"
         id="path304" />
    </clipPath>
    <clipPath
       clipPathUnits="userSpaceOnUse"
       id="clipPath306">
      <path
         d="M 0,595.276 H 841.89 V 0 H 0 Z"
         transform="translate(-321.59888,-276.27551)"
         id="path306" />
    </clipPath>
    <clipPath
       clipPathUnits="userSpaceOnUse"
       id="clipPath308">
      <path
         d="M 0,595.276 H 841.89 V 0 H 0 Z"
         transform="translate(-329.84003,-280.3604)"
         id="path308" />
    </clipPath>
    <clipPath
       clipPathUnits="userSpaceOnUse"
       id="clipPath310">
      <path
         d="M 0,595.276 H 841.89 V 0 H 0 Z"
         id="path310" />
    </clipPath>
    <clipPath
       clipPathUnits="userSpaceOnUse"
       id="clipPath312">
      <path
         d="M 0,595.276 H 841.89 V 0 H 0 Z"
         transform="translate(-343.90343,-284.11981)"
         id="path312" />
    </clipPath>
    <clipPath
       clipPathUnits="userSpaceOnUse"
       id="clipPath314">
      <path
         d="M 0,595.276 H 841.89 V 0 H 0 Z"
         transform="translate(-350.97383,-279.13121)"
         id="path314" />
    </clipPath>
    <clipPath
       clipPathUnits="userSpaceOnUse"
       id="clipPath316">
      <path
         d="M 0,595.276 H 841.89 V 0 H 0 Z"
         transform="translate(-358.49048,-280.3604)"
         id="path316" />
    </clipPath>
    <clipPath
       clipPathUnits="userSpaceOnUse"
       id="clipPath318">
      <path
         d="M 0,595.276 H 841.89 V 0 H 0 Z"
         id="path318" />
    </clipPath>
    <clipPath
       clipPathUnits="userSpaceOnUse"
       id="clipPath320">
      <path
         d="M 0,595.276 H 841.89 V 0 H 0 Z"
         transform="translate(-368.00978,-275.67931)"
         id="path320" />
    </clipPath>
    <clipPath
       clipPathUnits="userSpaceOnUse"
       id="clipPath322">
      <path
         d="M 0,595.276 H 841.89 V 0 H 0 Z"
         transform="translate(-385.25881,-275.67931)"
         id="path322" />
    </clipPath>
    <clipPath
       clipPathUnits="userSpaceOnUse"
       id="clipPath324">
      <path
         d="M 0,595.276 H 841.89 V 0 H 0 Z"
         transform="translate(-391.40701,-275.39011)"
         id="path324" />
    </clipPath>
    <clipPath
       clipPathUnits="userSpaceOnUse"
       id="clipPath326">
      <path
         d="M 0,595.276 H 841.89 V 0 H 0 Z"
         transform="translate(-409.66111,-271.016)"
         id="path326" />
    </clipPath>
    <clipPath
       clipPathUnits="userSpaceOnUse"
       id="clipPath328">
      <path
         d="M 0,595.276 H 841.89 V 0 H 0 Z"
         transform="translate(-414.88891,-278.80631)"
         id="path328" />
    </clipPath>
    <clipPath
       clipPathUnits="userSpaceOnUse"
       id="clipPath330">
      <path
         d="M 0,595.276 H 841.89 V 0 H 0 Z"
         transform="translate(-150.51563,-292.55281)"
         id="path330" />
    </clipPath>
    <clipPath
       clipPathUnits="userSpaceOnUse"
       id="clipPath332">
      <path
         d="M 0,595.276 H 841.89 V 0 H 0 Z"
         transform="translate(-201.64051,-266.67361)"
         id="path332" />
    </clipPath>
    <clipPath
       clipPathUnits="userSpaceOnUse"
       id="clipPath334">
      <path
         d="M 0,595.276 H 841.89 V 0 H 0 Z"
         transform="translate(-169.43768,-330.68891)"
         id="path334" />
    </clipPath>
    <clipPath
       clipPathUnits="userSpaceOnUse"
       id="clipPath336">
      <path
         d="M 0,595.276 H 841.89 V 0 H 0 Z"
         transform="translate(-64.957502,-266.67361)"
         id="path336" />
    </clipPath>
    <linearGradient
       x1="0"
       y1="0"
       x2="1"
       y2="0"
       gradientUnits="userSpaceOnUse"
       gradientTransform="matrix(-36.275678,36.275678,-36.275678,-36.275678,76.293914,130.3956)"
       spreadMethod="pad"
       id="linearGradient340">
      <stop
         style="stop-opacity:1;stop-color:#e95919"
         offset="0"
         id="stop336" />
      <stop
         style="stop-opacity:1;stop-color:#e95919"
         offset="0.217877"
         id="stop337" />
      <stop
         style="stop-opacity:1;stop-color:#45a4dc"
         offset="0.8262373"
         id="stop338" />
      <stop
         style="stop-opacity:1;stop-color:#45a4dc"
         offset="0.994382"
         id="stop339" />
      <stop
         style="stop-opacity:1;stop-color:#45a4dc"
         offset="1"
         id="stop340" />
    </linearGradient>
    <linearGradient
       x1="0"
       y1="0"
       x2="1"
       y2="0"
       gradientUnits="userSpaceOnUse"
       gradientTransform="matrix(-102.8287,-102.8287,-102.8287,102.8287,213.93059,321.99005)"
       spreadMethod="pad"
       id="linearGradient345">
      <stop
         style="stop-opacity:1;stop-color:#e95919"
         offset="0"
         id="stop341" />
      <stop
         style="stop-opacity:1;stop-color:#e95919"
         offset="0.217877"
         id="stop342" />
      <stop
         style="stop-opacity:1;stop-color:#45a4dc"
         offset="0.8262373"
         id="stop343" />
      <stop
         style="stop-opacity:1;stop-color:#45a4dc"
         offset="0.994382"
         id="stop344" />
      <stop
         style="stop-opacity:1;stop-color:#45a4dc"
         offset="1"
         id="stop345" />
    </linearGradient>
    <linearGradient
       x1="0"
       y1="0"
       x2="1"
       y2="0"
       gradientUnits="userSpaceOnUse"
       gradientTransform="matrix(-102.8287,-102.8287,-102.8287,102.8287,174.39323,361.5274)"
       spreadMethod="pad"
       id="linearGradient355">
      <stop
         style="stop-opacity:1;stop-color:#e95919"
         offset="0"
         id="stop351" />
      <stop
         style="stop-opacity:1;stop-color:#e95919"
         offset="0.217877"
         id="stop352" />
      <stop
         style="stop-opacity:1;stop-color:#45a4dc"
         offset="0.8262373"
         id="stop353" />
      <stop
         style="stop-opacity:1;stop-color:#45a4dc"
         offset="0.994382"
         id="stop354" />
      <stop
         style="stop-opacity:1;stop-color:#45a4dc"
         offset="1"
         id="stop355" />
    </linearGradient>
    <linearGradient
       x1="0"
       y1="0"
       x2="1"
       y2="0"
       gradientUnits="userSpaceOnUse"
       gradientTransform="matrix(-102.8287,-102.8287,-102.8287,102.8287,162.83064,373.09)"
       spreadMethod="pad"
       id="linearGradient365">
      <stop
         style="stop-opacity:1;stop-color:#e95919"
         offset="0"
         id="stop361" />
      <stop
         style="stop-opacity:1;stop-color:#e95919"
         offset="0.217877"
         id="stop362" />
      <stop
         style="stop-opacity:1;stop-color:#45a4dc"
         offset="0.8262373"
         id="stop363" />
      <stop
         style="stop-opacity:1;stop-color:#45a4dc"
         offset="0.994382"
         id="stop364" />
      <stop
         style="stop-opacity:1;stop-color:#45a4dc"
         offset="1"
         id="stop365" />
    </linearGradient>
    <linearGradient
       inkscape:collect="always"
       xlink:href="#linearGradient345"
       id="linearGradient1"
       gradientUnits="userSpaceOnUse"
       gradientTransform="matrix(-36.275678,36.275678,-36.275678,-36.275678,92.27427,146.37595)"
       x1="0"
       y1="0"
       x2="1"
       y2="0"
       spreadMethod="pad" />
    <linearGradient
       inkscape:collect="always"
       xlink:href="#linearGradient345"
       id="linearGradient2"
       gradientUnits="userSpaceOnUse"
       gradientTransform="matrix(-36.275678,36.275678,-36.275678,-36.275678,92.27427,146.37595)"
       x1="0"
       y1="0"
       x2="1"
       y2="0"
       spreadMethod="pad" />
    <linearGradient
       inkscape:collect="always"
       xlink:href="#linearGradient355"
       id="linearGradient3"
       gradientUnits="userSpaceOnUse"
       gradientTransform="matrix(-36.275678,36.275678,-36.275678,-36.275678,78.326369,132.42805)"
       x1="0"
       y1="0"
       x2="1"
       y2="0"
       spreadMethod="pad" />
    <linearGradient
       inkscape:collect="always"
       xlink:href="#linearGradient355"
       id="linearGradient4"
       gradientUnits="userSpaceOnUse"
       gradientTransform="matrix(-36.275678,36.275678,-36.275678,-36.275678,78.326369,132.42805)"
       x1="0"
       y1="0"
       x2="1"
       y2="0"
       spreadMethod="pad" />
    <linearGradient
       inkscape:collect="always"
       xlink:href="#linearGradient365"
       id="linearGradient5"
       gradientUnits="userSpaceOnUse"
       gradientTransform="matrix(-36.275678,36.275678,-36.275678,-36.275678,74.247344,128.34903)"
       x1="0"
       y1="0"
       x2="1"
       y2="0"
       spreadMethod="pad" />
    <linearGradient
       inkscape:collect="always"
       xlink:href="#linearGradient365"
       id="linearGradient6"
       gradientUnits="userSpaceOnUse"
       gradientTransform="matrix(-36.275678,36.275678,-36.275678,-36.275678,74.247344,128.34903)"
       x1="0"
       y1="0"
       x2="1"
       y2="0"
       spreadMethod="pad" />
    <linearGradient
       inkscape:collect="always"
       xlink:href="#linearGradient365"
       id="linearGradient7"
       gradientUnits="userSpaceOnUse"
       gradientTransform="matrix(-36.275678,36.275678,-36.275678,-36.275678,74.247344,128.34903)"
       x1="0"
       y1="0"
       x2="1"
       y2="0"
       spreadMethod="pad" />
  </defs>
  <g
     inkscape:label="Capa 1"
     inkscape:groupmode="layer"
     id="layer1">
    <g
       id="g8"
       transform="matrix(2.7454096,0,0,2.7454096,-76.647866,-344.26556)">
      <path
         id="path237"
         clip-path="url(#clipPath238)"
         style="fill:#4e4d4d;fill-opacity:1;fill-rule:nonzero;stroke:none"
         transform="matrix(0.35277776,0,0,-0.35277776,151.45286,144.84981)"
         d="m 0,0 v -2.333 h 0.1 c 1.178,1.866 2.867,2.8 5.066,2.8 1.756,0 3.178,-0.595 4.267,-1.784 1.088,-1.188 1.633,-2.727 1.633,-4.616 V -17.099 H 6.533 V -6.6 c 0,0.934 -0.262,1.689 -0.783,2.267 -0.523,0.577 -1.251,0.867 -2.183,0.867 -1.001,0 -1.829,-0.367 -2.484,-1.1 C 0.427,-5.3 0.1,-6.244 0.1,-7.399 v -9.7 H -4.433 V 0 Z m -9.7990304,6.8329988 -3.5999996,-4.7 h -3.533 l 1.833,4.7 z M -15.13203,-14.133001 c 1.355,0 2.417,0.506 3.183,1.517 0.767,1.011 1.15,2.361 1.15,4.0499998 0,1.688 -0.383,3.044 -1.15,4.066 -0.766,1.022 -1.828,1.533 -3.183,1.533 -1.378,0 -2.444,-0.505 -3.2,-1.516 -0.756,-1.011 -1.133,-2.372 -1.133,-4.083 0,-1.6889998 0.377,-3.0389998 1.133,-4.0499998 0.756,-1.011 1.822,-1.517 3.2,-1.517 m 6.4329996,-0.883 c -1.6669996,-1.722 -3.8109996,-2.583 -6.4329996,-2.583 -2.622,0 -4.766,0.861 -6.433,2.583 -1.667,1.722 -2.5,3.872 -2.5,6.4499998 0,2.577 0.833,4.727 2.5,6.449 1.667,1.72199997 3.811,2.58399997 6.433,2.58399997 2.622,0 4.766,-0.862 6.4329996,-2.58399997 1.667,-1.722 2.5,-3.872 2.5,-6.449 0,-2.5779998 -0.833,-4.7279998 -2.5,-6.4499998 M -30.364931,-1.2038128e-4 h 4.533 V -17.09912 h -4.533 z m 0,6.73299998128 h 4.533 v -4.067 h -4.533 z M -39.697117,-17.59921 c -2.645,0 -4.766,0.855 -6.366,2.567 -1.6,1.71 -2.4,3.866 -2.4,6.4659997 0,2.6 0.783,4.755 2.35,6.466 1.566,1.71099996 3.627,2.56699996 6.183,2.56699996 2.155,0 3.911,-0.567 5.266,-1.69999996 1.355,-1.133 2.188,-2.656 2.5,-4.567 h -4.433 c -0.156,0.778 -0.512,1.411 -1.067,1.9 -0.555,0.489 -1.245,0.733 -2.066,0.733 -1.334,0 -2.356,-0.478 -3.067,-1.433 -0.711,-0.955 -1.066,-2.278 -1.066,-3.966 0,-1.6669997 0.344,-2.9829997 1.033,-3.9499997 0.689,-0.966 1.7,-1.45 3.033,-1.45 1.977,0 3.122,0.967 3.433,2.9 h 4.366 c -0.155,-1.889 -0.922,-3.45 -2.299,-4.683 -1.379,-1.233 -3.178,-1.85 -5.4,-1.85 m -18.765667,3.266702 c 1.244,0 2.228,0.322 2.95,0.966 0.722,0.645 1.083,1.411 1.083,2.3 v 2.5670002 c -0.489,-0.289 -1.545,-0.622 -3.167,-1 -1.288,-0.289 -2.199,-0.6170002 -2.733,-0.9830002 -0.533,-0.367 -0.799,-0.928 -0.799,-1.684 0,-1.444 0.888,-2.166 2.666,-2.166 m 4.533,-2.767 c -0.222,0.289 -0.4,0.922 -0.533,1.9 h -0.067 c -0.489,-0.733 -1.111,-1.3 -1.866,-1.699 -0.756,-0.401 -1.812,-0.601 -3.167,-0.601 -1.8,0 -3.245,0.456 -4.333,1.367 -1.089,0.911 -1.633,2.2 -1.633,3.866 0,1.734 0.6,3.0060002 1.8,3.8170002 1.199,0.811 2.888,1.372 5.066,1.683 1.6,0.222 2.688,0.45 3.266,0.683 0.578,0.234 0.867,0.65 0.867,1.251 0,0.621 -0.245,1.116 -0.733,1.483 -0.489,0.366 -1.2,0.55 -2.134,0.55 -2.066,0 -3.166,-0.8 -3.299,-2.4 h -4.033 c 0.067,1.622 0.722,2.966 1.967,4.033 1.243,1.06599999 3.044,1.59999999 5.399,1.59999999 4.8,0 7.2,-2.09999999 7.2,-6.29999999 v -8.6990002 c 0,-1.289 0.2,-2.078 0.6,-2.367 v -0.167 z m -21.765237,4.14e-4 -5.933,17.099000224928 h 4.6 l 2.733,-8.866000024928 0.767,-2.7330002 h 0.066 c 0.156,0.733 0.4,1.6440002 0.734,2.7330002 l 2.8,8.866000024928 h 4.532 L -71.362021,-17.099094 Z m -14.732023,2.966599 c 1.355,0 2.417,0.505 3.183,1.516 0.767,1.011 1.15,2.361 1.15,4.0499998 0,1.689 -0.383,3.044 -1.15,4.067 -0.766,1.022 -1.828,1.533 -3.183,1.533 -1.378,0 -2.444,-0.506 -3.2,-1.517 -0.756,-1.011 -1.133,-2.372 -1.133,-4.083 0,-1.6889998 0.377,-3.0389998 1.133,-4.0499998 0.756,-1.011 1.822,-1.516 3.2,-1.516 m 6.433,-0.883 c -1.667,-1.723 -3.811,-2.584 -6.433,-2.584 -2.622,0 -4.766,0.861 -6.433,2.584 -1.667,1.721 -2.5,3.871 -2.5,6.4489998 0,2.578 0.833,4.728 2.5,6.45 1.667,1.722 3.811,2.583 6.433,2.583 2.622,0 4.766,-0.861 6.433,-2.583 1.667,-1.722 2.5,-3.872 2.5,-6.45 0,-2.5779998 -0.833,-4.7279998 -2.5,-6.4489998 M -112.05893,0 v -2.333 h 0.1 c 1.178,1.866 2.867,2.8 5.066,2.8 1.756,0 3.178,-0.595 4.267,-1.784 1.088,-1.188 1.633,-2.727 1.633,-4.616 v -11.166 h -4.533 V -6.6 c 0,0.934 -0.262,1.689 -0.783,2.267 -0.523,0.577 -1.251,0.867 -2.183,0.867 -1.001,0 -1.829,-0.367 -2.484,-1.1 -0.656,-0.734 -0.983,-1.678 -0.983,-2.833 v -9.7 h -4.533 V 0 Z m -17.96579,0 v -2.333 h 0.1 c 1.177,1.866 2.867,2.8 5.066,2.8 1.755,0 3.178,-0.595 4.267,-1.784 1.088,-1.188 1.633,-2.727 1.633,-4.616 v -11.166 h -4.533 V -6.6 c 0,0.934 -0.262,1.689 -0.783,2.267 -0.523,0.577 -1.25,0.867 -2.184,0.867 -1,0 -1.828,-0.367 -2.483,-1.1 -0.655,-0.734 -0.983,-1.678 -0.983,-2.833 v -9.7 h -4.533 V 0 Z m -12.26521,6.7328796 h 4.833 V -17.09912 h -4.833 z M 5.3001924,25.049 c -2.2,0 -3.522,-1.222 -3.966,-3.666 h 7.6 c -0.067,1.088 -0.434,1.971 -1.1,2.649 -0.667,0.678 -1.512,1.017 -2.534,1.017 m 0.367,-14.566 c -2.756,0 -4.92200001,0.85 -6.50000001,2.55 -1.57799999,1.7 -2.36599999,3.872 -2.36599999,6.516 0,2.555 0.788,4.694 2.36599999,6.417 1.578,1.721 3.60000001,2.583 6.06700001,2.583 2.688,0 4.7659996,-0.934 6.2329996,-2.8 1.466,-1.867 2.199,-4.366 2.199,-7.5 H 1.2671924 c 0.178,-1.355 0.633,-2.405 1.367,-3.15 0.733,-0.744 1.733,-1.116 3,-1.116 1.666,0 2.766,0.7 3.3,2.1 h 4.4659996 c -0.334,-1.6 -1.178,-2.933 -2.533,-4 -1.3559996,-1.066 -3.0889996,-1.6 -5.1999996,-1.6 m -19.1655204,3.799902 c 1.333,0 2.35,0.455 3.05,1.367 0.6989998,0.911 1.0499998,2.166 1.0499998,3.766 0,3.644 -1.3229998,5.466 -3.9669998,5.466 -1.222,0 -2.156,-0.488 -2.8,-1.466 -0.644,-0.978 -0.966,-2.278 -0.966,-3.9 0,-1.667 0.316,-2.955 0.949,-3.866 0.634,-0.912 1.528,-1.367 2.684,-1.367 m -1,-3.8 c -2.155,0 -3.9,0.817 -5.233,2.45 -1.333,1.633 -2,3.828 -2,6.583 0,2.667 0.683,4.838 2.05,6.516 1.366,1.678 3.116,2.517 5.25,2.517 2.133,0 3.744,-0.845 4.8329998,-2.533 h 0.1 v 8.799 h 4.533 v -23.832 h -4.367 v 2.234 h -0.066 c -1.1119998,-1.823 -2.8119998,-2.734 -5.0999998,-2.734 m -22.497967,3.266689 c 1.244,0 2.228,0.322 2.95,0.966 0.722,0.645 1.083,1.411 1.083,2.3 v 2.567 c -0.489,-0.289 -1.545,-0.622 -3.167,-1 -1.288,-0.289 -2.199,-0.617 -2.733,-0.983 -0.533,-0.367 -0.799,-0.928 -0.799,-1.684 0,-1.444 0.888,-2.166 2.666,-2.166 m 4.533,-2.767 c -0.222,0.289 -0.4,0.922 -0.533,1.9 h -0.067 c -0.489,-0.733 -1.111,-1.3 -1.866,-1.699 -0.756,-0.401 -1.812,-0.601 -3.167,-0.601 -1.8,0 -3.245,0.456 -4.333,1.367 -1.089,0.911 -1.633,2.2 -1.633,3.866 0,1.734 0.6,3.006 1.8,3.817 1.2,0.811 2.888,1.372 5.066,1.683 1.6,0.222 2.688,0.45 3.266,0.683 0.578,0.234 0.867,0.65 0.867,1.251 0,0.621 -0.245,1.116 -0.733,1.483 -0.489,0.366 -1.2,0.55 -2.134,0.55 -2.066,0 -3.166,-0.8 -3.299,-2.4 h -4.033 c 0.067,1.622 0.722,2.966 1.967,4.033 1.243,1.066 3.044,1.6 5.399,1.6 4.8,0 7.2,-2.1 7.2,-6.3 v -8.699 c 0,-1.289 0.2,-2.078 0.6,-2.367 v -0.167 z M -50.361931,28.08188 h 4.533 v -17.099 h -4.533 z m 0,6.733 h 4.533 v -4.066 h -4.533 z m -9.333414,-24.331878 c -2.645,0 -4.766,0.855 -6.366,2.567 -1.6,1.71 -2.4,3.866 -2.4,6.466 0,2.6 0.783,4.755 2.35,6.466 1.566,1.711 3.627,2.567 6.183,2.567 2.155,0 3.911,-0.567 5.266,-1.7 1.355,-1.133 2.188,-2.656 2.5,-4.567 h -4.433 c -0.156,0.778 -0.512,1.411 -1.067,1.9 -0.555,0.489 -1.245,0.734 -2.066,0.734 -1.334,0 -2.356,-0.479 -3.067,-1.434 -0.711,-0.955 -1.066,-2.278 -1.066,-3.966 0,-1.667 0.344,-2.983 1.033,-3.95 0.689,-0.966 1.7,-1.45 3.033,-1.45 1.977,0 3.122,0.967 3.433,2.9 h 4.366 c -0.155,-1.889 -0.922,-3.45 -2.299,-4.683 -1.379,-1.233 -3.178,-1.85 -5.4,-1.85 m -21.465298,17.599097 v -2.333 h 0.1 c 1.178,1.866 2.867,2.8 5.066,2.8 1.756,0 3.178,-0.595 4.267,-1.784 1.088,-1.188 1.633,-2.727 1.633,-4.616 v -11.166 h -4.533 v 10.499 c 0,0.934 -0.262,1.689 -0.783,2.267 -0.523,0.577 -1.251,0.867 -2.183,0.867 -1.001,0 -1.829,-0.367 -2.484,-1.1 -0.656,-0.734 -0.983,-1.678 -0.983,-2.833 v -9.7 h -4.533 v 17.099 z M -95.726017,25.049 c -2.2,0 -3.522,-1.222 -3.966,-3.666 h 7.6 c -0.067,1.088 -0.434,1.971 -1.1,2.649 -0.667,0.678 -1.512,1.017 -2.534,1.017 m 0.367,-14.566 c -2.756,0 -4.922003,0.85 -6.500003,2.55 -1.578,1.7 -2.366,3.872 -2.366,6.516 0,2.555 0.788,4.694 2.366,6.417 1.578,1.721 3.600003,2.583 6.067003,2.583 2.688,0 4.766,-0.934 6.233,-2.8 1.466,-1.867 2.199,-4.366 2.199,-7.5 h -12.399 c 0.178,-1.355 0.633,-2.405 1.367,-3.15 0.733,-0.744 1.733,-1.116 3,-1.116 1.666,0 2.766,0.7 3.3,2.1 h 4.466 c -0.334,-1.6 -1.178,-2.933 -2.534,-4 -1.355,-1.066 -3.088,-1.6 -5.199,-1.6 m -18.899203,5.166399 c 1.355,0 2.367,0.434 3.033,1.3 0.667,0.867 1,1.977 1,3.333 0,1.333 -0.35,2.439 -1.05,3.317 -0.7,0.877 -1.706,1.316 -3.016,1.316 -1.156,0 -2.083,-0.422 -2.783,-1.266 -0.7,-0.845 -1.051,-1.978 -1.051,-3.4 0,-1.445 0.351,-2.572 1.051,-3.383 0.7,-0.812 1.638,-1.217 2.816,-1.217 m 0.067,-10.4989998 c -2.311,0 -4.161,0.466 -5.55,1.4 -1.389,0.933 -2.206,2.244 -2.45,3.9329998 h 4.499 c 0.445,-1.2669998 1.59,-1.8999998 3.434,-1.8999998 2.533,0 3.8,1.189 3.8,3.5659998 v 1.867 h -0.1 c -1.178,-1.333 -2.667,-2 -4.467,-2 -2.022,0 -3.783,0.744 -5.283,2.233 -1.5,1.489 -2.25,3.467 -2.25,5.933 0,2.533 0.689,4.561 2.067,6.083 1.378,1.522 3.155,2.283 5.333,2.283 2.067,0 3.644,-0.755 4.734,-2.266 h 0.065 v 1.8 h 4.367 v -15.799 c 0,-2.222 -0.678,-3.9549998 -2.033,-5.1999998 -1.379,-1.289 -3.434,-1.933 -6.166,-1.933 m -20.13287,21.4651958 -2.133,-6.866 h 6.3 l -2.134,6.866 -0.967,3.666 h -0.066 c -0.4,-1.599 -0.733,-2.822 -1,-3.666 m -9.733,-15.632 8.3,23.832 h 4.999 l 8.4,-23.832 h -5.033 l -1.6,5.066 h -8.599 l -1.567,-5.066 z" />
      <path
         id="path327"
         clip-path="url(#clipPath328)"
         style="fill:#4e4d4d;fill-opacity:1;fill-rule:nonzero;stroke:none"
         transform="matrix(0.35277776,0,0,-0.35277776,163.1679,161.61021)"
         d="m 0,0 h 0.036 c 0.56,0.903 1.536,1.663 2.783,1.663 0.271,0 0.416,-0.037 0.597,-0.109 V 0.144 H 3.362 C 3.145,0.217 3,0.235 2.711,0.235 1.265,0.235 0,-0.85 0,-2.603 V -7.79 H -1.464 V 1.554 H 0 Z m -5.2277955,-7.7903154 v 1.283 h -0.036 c -0.669,-0.904 -1.464,-1.5 -2.82,-1.5 -1.916,0 -3.1450005,1.157 -3.1450005,3.091 v 6.47 h 1.4640005 v -6.434 c 0,-1.211 0.778,-1.916 2.097,-1.916 1.482,0 2.44,1.121 2.44,2.603 v 5.747 h 1.464 v -9.344 z m -18.2540985,4.3741137 h 1.59 c 0.217,-2.187 1.555,-3.326 3.995,-3.326 1.789,0 3.072,0.814 3.072,2.422 0,1.772 -1.554,2.187 -3.867,2.693 -2.278,0.506 -4.23,1.15699995 -4.23,3.597 0,2.133 1.771,3.416 4.392,3.416 3.236,0 4.573,-1.645 4.898,-4.031 h -1.536 c -0.235,1.844 -1.428,2.766 -3.326,2.766 -1.753,0 -2.91,-0.741 -2.91,-2.079 0,-1.46300005 1.446,-1.89700005 3.38,-2.27700005 2.513,-0.506 4.808,-1.11999995 4.808,-4.03099995 0,-2.421 -1.97,-3.777 -4.754,-3.777 -3.633,0 -5.368,2.024 -5.512,4.627 m -6.148205,0.2891905 c 0,2.061 -1.012,3.70500002 -3,3.70500002 -1.988,0 -3.018,-1.64400002 -3.018,-3.70500002 0,-2.061 1.03,-3.687 3.018,-3.687 1.988,0 3,1.626 3,3.687 m -7.519,0 c 0,2.71100002 1.735,4.916 4.519,4.916 2.802,0 4.501,-2.20499998 4.501,-4.916 0,-2.711 -1.699,-4.916 -4.501,-4.916 -2.784,0 -4.519,2.205 -4.519,4.916 m -9.730018,0 c 0,2.71100002 1.735,4.916 4.519,4.916 2.205,0 3.669,-1.26499998 3.994,-3.253 h -1.482 c -0.217,1.26500002 -1.102,2.04200002 -2.512,2.04200002 -1.988,0 -3.018,-1.64400002 -3.018,-3.70500002 0,-2.061 1.03,-3.687 3.018,-3.687 1.518,0 2.422,0.868 2.548,2.313 h 1.446 c -0.198,-2.241 -1.663,-3.542 -3.994,-3.542 -2.784,0 -4.519,2.205 -4.519,4.916 m -3.260803,4.6806885 h 1.464 v -9.344 h -1.464 z m 0,3.579 h 1.464 v -1.808 h -1.464 z m -6.258505,-3.5785827 h 1.355 v 2.947 h 1.464 v -2.947 h 1.808 V 0.36109457 h -1.808 V -5.7119054 c 0,-0.65 0.344,-0.868 0.94,-0.868 0.29,0 0.615,0.073 0.777,0.127 h 0.055 v -1.265 c -0.344,-0.072 -0.741,-0.126 -1.175,-0.126 -1.193,0 -2.061,0.487 -2.061,1.807 v 6.39799997 h -1.355 z m -7.516659,-1.22921584 h 0.036 c 0.669,0.88600004 1.609,1.44600004 2.965,1.44600004 1.951,0 3.144,-1.06600004 3.144,-3 v -6.561 h -1.463 v 6.434 c 0,1.21099996 -0.795,1.89799996 -2.115,1.89799996 -1.482,0 -2.567,-1.048 -2.567,-2.58499996 v -5.747 h -1.464 v 9.344 h 1.464 z m -7.0704,4.98860814 h 1.808 l -1.483,-2.295 h -1.247 z m 1.79,-9.651 v 1.59 c -0.488,-0.307 -1.338,-0.542 -2.133,-0.687 -1.464,-0.271 -2.639,-0.524 -2.639,-1.897 0,-1.248 0.976,-1.519 1.934,-1.519 1.952,0 2.838,1.428 2.838,2.513 m -0.036,-2.151 h -0.019 c -0.56,-0.723 -1.518,-1.482 -3.109,-1.482 -1.771,0 -3.162,0.831 -3.162,2.602 0,2.205 1.735,2.657 4.066,3.019 1.32,0.198 2.241,0.325 2.241,1.337 0,1.04799998 -0.759,1.64499998 -2.096,1.64499998 -1.518,0 -2.278,-0.651 -2.332,-2.06099998 h -1.409 c 0.054,1.80799998 1.247,3.164 3.723,3.164 1.988,0 3.452,-0.74100002 3.452,-2.965 v -4.446 c 0,-0.759 0.181,-1.175 0.994,-0.994 h 0.054 v -1.067 c -0.18,-0.072 -0.415,-0.144 -0.795,-0.144 -0.958,0 -1.464,0.433 -1.608,1.392 M -78.76392,5.1326773 h 1.464 v -12.923 h -1.464 z m -6.28495,-3.5785827 h 1.355 v 2.947 h 1.464 v -2.947 h 1.808 V 0.36109457 h -1.808 V -5.7119054 c 0,-0.65 0.344,-0.868 0.94,-0.868 0.29,0 0.615,0.073 0.777,0.127 h 0.055 v -1.265 c -0.344,-0.072 -0.741,-0.126 -1.175,-0.126 -1.193,0 -2.061,0.487 -2.061,1.807 v 6.39799997 h -1.355 z m -8.241166,-4.0848947 h 4.229 l -1.482,4.338 c -0.253,0.723 -0.578,1.825 -0.578,1.825 h -0.037 c 0,0 -0.343,-1.084 -0.596,-1.825 z m 1.229,7.664 h 1.826 l 4.771,-12.923 h -1.771 l -1.374,3.94 h -5.151 l -1.392,-3.94 h -1.663 z m -11.225884,-5.226e-4 h 1.464 v -12.923 h -1.464 z m -9.00105,-7.5007971 h 5.621 c -0.091,1.862 -1.049,3.001 -2.729,3.001 -1.735,0 -2.675,-1.302 -2.892,-3.001 m -1.537,-0.759 c 0,2.711 1.772,4.916 4.429,4.916 2.801,0 4.302,-2.169 4.302,-5.259 h -7.23 c 0.108,-1.898 1.138,-3.344 3.018,-3.344 1.356,0 2.259,0.65 2.584,1.916 h 1.429 c -0.434,-2.007 -1.898,-3.145 -4.013,-3.145 -2.856,0 -4.519,2.205 -4.519,4.916 m -3.18096,-0.036175 c 0,2.16899995 -1.049,3.68699995 -2.983,3.68699995 -1.771,0 -2.674,-1.58999995 -2.674,-3.68699995 0,-2.115 0.903,-3.669 2.693,-3.669 2.078,0 2.964,1.554 2.964,3.669 m -7.158,0.018 c 0,3.10899995 1.79,4.916 4.103,4.916 1.32,0 2.332,-0.65 2.929,-1.53600005 h 0.035 V 5.1327054 h 1.465 v -12.923 h -1.465 v 1.139 h -0.035 c -0.705,-0.904 -1.573,-1.41 -2.892,-1.41 -2.549,0 -4.14,1.916 -4.14,4.916 m -12.49185,-1.608208 h 1.5 c 0.199,-1.627 1.283,-2.079 2.675,-2.079 1.536,0 2.169,0.669 2.169,1.536 0,1.049 -0.723,1.32 -2.44,1.681 -1.844,0.38 -3.488,0.759 -3.488,2.802 0,1.554 1.193,2.567 3.361,2.567 2.314,0 3.453,-1.103 3.67,-2.929 h -1.5 c -0.145,1.23 -0.814,1.772 -2.206,1.772 -1.337,0 -1.879,-0.59600000175 -1.879,-1.338 0,-1.012 0.903,-1.211 2.512,-1.536 1.88,-0.38 3.452,-0.795 3.452,-2.946 0,-1.88 -1.536,-2.838 -3.687,-2.838 -2.567,0 -3.995,1.211 -4.139,3.308 m -3.21571,0.4155874 v 1.59 c -0.488,-0.307 -1.338,-0.542 -2.133,-0.687 -1.464,-0.271 -2.639,-0.524 -2.639,-1.897 0,-1.248 0.976,-1.518 1.934,-1.518 1.952,0 2.838,1.427 2.838,2.512 m -0.036,-2.151 h -0.019 c -0.56,-0.723 -1.517,-1.482 -3.108,-1.482 -1.772,0 -3.164,0.831 -3.164,2.603 0,2.205 1.736,2.656 4.068,3.018 1.319,0.198 2.241,0.326 2.241,1.337 0,1.04900002 -0.759,1.64500002 -2.097,1.64500002 -1.518,0 -2.277,-0.651 -2.332,-2.06000002 h -1.409 c 0.054,1.80700002 1.247,3.163 3.723,3.163 1.988,0 3.452,-0.74099998 3.452,-2.964 v -4.447 c 0,-0.759 0.181,-1.174 0.995,-0.994 h 0.054 v -1.066 c -0.181,-0.072 -0.416,-0.145 -0.796,-0.145 -0.958,0 -1.464,0.434 -1.608,1.392 m -9.53143,11.6215925 h 1.464 v -12.923 h -1.464 z m -9.62499,-9.8861799 h 1.5 c 0.199,-1.627 1.284,-2.079 2.675,-2.079 1.536,0 2.169,0.669 2.169,1.536 0,1.049 -0.723,1.32 -2.44,1.681 -1.843,0.38 -3.488,0.759 -3.488,2.802 0,1.554 1.193,2.567 3.362,2.567 2.313,0 3.452,-1.103 3.669,-2.929 h -1.5 c -0.145,1.23 -0.814,1.772 -2.206,1.772 -1.337,0 -1.879,-0.59600000175 -1.879,-1.338 0,-1.012 0.903,-1.211 2.512,-1.536 1.88,-0.38 3.453,-0.795 3.453,-2.946 0,-1.88 -1.537,-2.838 -3.688,-2.838 -2.567,0 -3.994,1.211 -4.139,3.308 m -3.63801,9.8861799 h 1.627 v -12.923 h -1.627 z m -12.65446,-7.5007971 h 5.621 c -0.09,1.862 -1.048,3.001 -2.729,3.001 -1.735,0 -2.675,-1.302 -2.892,-3.001 m -1.536,-0.759 c 0,2.711 1.771,4.916 4.428,4.916 2.802,0 4.302,-2.169 4.302,-5.259 h -7.23 c 0.108,-1.898 1.138,-3.344 3.018,-3.344 1.356,0 2.26,0.65 2.585,1.916 h 1.428 c -0.434,-2.007 -1.898,-3.145 -4.013,-3.145 -2.856,0 -4.518,2.205 -4.518,4.916 M 28.480509,12.53659 v 1.59 c -0.488,-0.307 -1.338,-0.542 -2.133,-0.687 -1.464,-0.271 -2.639,-0.524 -2.639,-1.897 0,-1.248 0.976,-1.518 1.934,-1.518 1.952,0 2.838,1.427 2.838,2.512 m -0.036,-2.151 h -0.019 c -0.56,-0.7230004 -1.517,-1.4820004 -3.108,-1.4820004 -1.772,0 -3.163,0.831 -3.163,2.6030004 0,2.205 1.735,2.656 4.067,3.018 1.319,0.198 2.241,0.326 2.241,1.337 0,1.049 -0.759,1.645 -2.097,1.645 -1.518,0 -2.277,-0.651 -2.332,-2.06 h -1.409 c 0.054,1.807 1.247,3.163 3.723,3.163 1.988,0 3.452,-0.741 3.452,-2.964 v -4.447 c 0,-0.759 0.181,-1.174 0.995,-0.994 h 0.054 V 9.1385896 c -0.181,-0.072 -0.416,-0.145 -0.796,-0.145 -0.957,0 -1.464,0.434 -1.608,1.3920004 m -9.422647,3.325592 c 0,2.169 -1.049,3.687 -2.983,3.687 -1.771,0 -2.674,-1.59 -2.674,-3.687 0,-2.115 0.903,-3.669 2.693,-3.669 2.078,0 2.964,1.554 2.964,3.669 m -7.158,0.018 c 0,3.109 1.79,4.916 4.103,4.916 1.32,0 2.332,-0.65 2.929,-1.536 h 0.035 v 4.898 h 1.465 V 9.0841818 h -1.465 v 1.1390002 h -0.035 c -0.705,-0.9040002 -1.573,-1.4100002 -2.892,-1.4100002 -2.549,0 -4.14,1.9160002 -4.14,4.9160002 M 8.5760796,18.428677 H 10.04008 V 9.0846773 H 8.5760796 Z m 0,3.579 H 10.04008 v -1.808 H 8.5760796 Z M 2.317408,18.428486 h 1.355 v 2.947 h 1.464 v -2.947 h 1.808 v -1.193 h -1.808 v -6.073 c 0,-0.65 0.344,-0.868 0.94,-0.868 0.29,0 0.615,0.073 0.777,0.127 h 0.055 v -1.265 c -0.344,-0.072 -0.741,-0.126 -1.175,-0.126 -1.193,0 -2.061,0.487 -2.061,1.807 v 6.398 h -1.355 z m -4.600942,-1.55401 h 0.036 c 0.56,0.903 1.53600003,1.663 2.78300003,1.663 0.271,0 0.416,-0.037 0.59699997,-0.109 v -1.41 h -0.054 c -0.21699997,0.073 -0.36199997,0.091 -0.65099997,0.091 -1.44600003,0 -2.71100003,-1.085 -2.71100003,-2.838 V 9.0844764 h -1.464 v 9.3439996 h 1.464 z m -7.0714491,5.313516 h 1.808 l -1.483,-2.295 h -1.2469999 z m 1.79,-9.651 v 1.59 c -0.488,-0.307 -1.338,-0.542 -2.133,-0.687 -1.4639999,-0.271 -2.6389999,-0.524 -2.6389999,-1.897 0,-1.248 0.976,-1.519 1.934,-1.519 1.9519999,0 2.8379999,1.428 2.8379999,2.513 m -0.036,-2.151 h -0.019 c -0.56,-0.7230003 -1.518,-1.4820003 -3.1089999,-1.4820003 -1.771,0 -3.162,0.831 -3.162,2.6020003 0,2.205 1.735,2.657 4.0659999,3.019 1.32,0.198 2.241,0.325 2.241,1.337 0,1.048 -0.759,1.645 -2.096,1.645 -1.5179999,0 -2.2779999,-0.651 -2.3319999,-2.061 h -1.409 c 0.054,1.808 1.247,3.164 3.7229999,3.164 1.988,0 3.452,-0.741 3.452,-2.965 v -4.446 c 0,-0.759 0.181,-1.175 0.994,-0.994 h 0.054 V 9.1379917 c -0.18,-0.072 -0.415,-0.144 -0.795,-0.144 -0.958,0 -1.464,0.433 -1.608,1.3920003 m -12.1315249,8.042494 h 1.355 v 2.947 h 1.464 v -2.947 h 1.808 v -1.193 h -1.808 v -6.073 c 0,-0.65 0.344,-0.868 0.94,-0.868 0.29,0 0.615,0.073 0.777,0.127 h 0.055 v -1.265 c -0.344,-0.072 -0.741,-0.126 -1.175,-0.126 -1.193,0 -2.061,0.487 -2.061,1.807 v 6.398 h -1.355 z m -7.51612,-1.229187 h 0.036 c 0.669,0.886 1.609,1.446 2.965,1.446 1.951,0 3.144,-1.066 3.144,-3 V 9.0842985 h -1.463 v 6.4340005 c 0,1.211 -0.795,1.898 -2.115,1.898 -1.482,0 -2.567,-1.048 -2.567,-2.585 V 9.0842985 h -1.464 v 9.3440005 h 1.464 z M -38.0757,14.343591 h 4.229 l -1.482,4.338 c -0.253,0.723 -0.578,1.825 -0.578,1.825 h -0.037 c 0,0 -0.343,-1.084 -0.596,-1.825 z m 1.229,7.664 h 1.826 l 4.771,-12.9229997 h -1.771 l -1.374,3.9399997 h -5.151 l -1.392,-3.9399997 h -1.663 z M -48.09039,7.5841799 c 0.397,0.144 0.813,0.488 0.813,1.5 h -0.831 V 10.87318 h 1.753 V 9.0301799 c 0,-1.32 -0.705,-2.061 -1.735,-2.26 z m -3.044608,6.1632001 c 0,2.061 -1.012,3.705 -3,3.705 -1.988,0 -3.018,-1.644 -3.018,-3.705 0,-2.061 1.03,-3.687 3.018,-3.687 1.988,0 3,1.626 3,3.687 m -7.519,0 c 0,2.711 1.735,4.916 4.519,4.916 2.802,0 4.501,-2.205 4.501,-4.916 0,-2.711 -1.699,-4.9159998 -4.501,-4.9159998 -2.784,0 -4.519,2.2049998 -4.519,4.9159998 m -3.163193,0.361701 c 0,2.042 -0.868,3.308 -2.856,3.308 -1.753,0 -2.639,-1.374 -2.639,-3.399 0,-2.042 0.922,-3.379 2.657,-3.379 2.151,0 2.838,1.5 2.838,3.47 m -6.706,-5.549 h 1.356 c 0.145,-1.031 1.12,-1.428 2.566,-1.428 1.718,0 2.675,0.778 2.675,2.404 v 1.319 h -0.036 c -0.686,-0.885 -1.427,-1.445 -2.765,-1.445 -2.422,0 -4.085,1.934 -4.085,4.627 0,2.909 1.826,4.608 3.994,4.608 1.356,0 2.224,-0.524 2.856,-1.41 h 0.036 v 1.193 h 1.465 v -8.838 c 0,-2.458 -1.627,-3.615 -4.104,-3.615 -2.421,0 -3.795,0.976 -3.958,2.585 m -8.764391,5.946304 h 5.621 c -0.091,1.862 -1.049,3.001 -2.729,3.001 -1.735,0 -2.675,-1.302 -2.892,-3.001 m -1.537,-0.759 c 0,2.711 1.772,4.916 4.429,4.916 2.801,0 4.302,-2.169 4.302,-5.259 h -7.23 c 0.108,-1.898 1.138,-3.344 3.018,-3.344 1.356,0 2.259,0.65 2.584,1.916 h 1.429 c -0.434,-2.007 -1.898,-3.145 -4.013,-3.145 -2.856,0 -4.519,2.205 -4.519,4.916 M -82.09568,9.0841894 v 1.2829996 h -0.036 c -0.669,-0.9039996 -1.464,-1.4999996 -2.82,-1.4999996 -1.916,0 -3.145,1.1569996 -3.145,3.0909996 v 6.47 h 1.464 v -6.434 c 0,-1.211 0.778,-1.916 2.097,-1.916 1.482,0 2.44,1.121 2.44,2.603 v 5.747 h 1.464 V 9.0841894 Z M -97.88752,22.007481 h 8.767 v -1.428 h -7.14 v -4.03 h 5.947 v -1.374 h -5.947 V 9.0844814 h -1.627 z m -7.5024,1.96e-4 h 1.464 V 9.0846773 h -1.464 z m -9.00099,-7.501292 h 5.621 c -0.091,1.862 -1.049,3.001 -2.729,3.001 -1.735,0 -2.675,-1.302 -2.892,-3.001 m -1.537,-0.759 c 0,2.711 1.772,4.916 4.429,4.916 2.801,0 4.302,-2.169 4.302,-5.259 h -7.23 c 0.108,-1.898 1.138,-3.344 3.018,-3.344 1.356,0 2.259,0.65 2.584,1.916 h 1.429 c -0.434,-2.007 -1.898,-3.145 -4.013,-3.145 -2.856,0 -4.519,2.205 -4.519,4.916 m -3.18087,-0.0362 c 0,2.169 -1.049,3.687 -2.983,3.687 -1.771,0 -2.674,-1.59 -2.674,-3.687 0,-2.115 0.903,-3.669 2.693,-3.669 2.078,0 2.964,1.554 2.964,3.669 m -7.158,0.018 c 0,3.109 1.79,4.916 4.103,4.916 1.32,0 2.332,-0.65 2.929,-1.536 h 0.035 v 4.898 h 1.465 V 9.0841818 h -1.465 v 1.1390002 h -0.035 c -0.705,-0.9040002 -1.573,-1.4100002 -2.892,-1.4100002 -2.549,0 -4.14,1.9160002 -4.14,4.9160002 m -6.70816,-1.192592 v 1.59 c -0.488,-0.307 -1.338,-0.542 -2.133,-0.687 -1.464,-0.271 -2.639,-0.524 -2.639,-1.897 0,-1.248 0.976,-1.518 1.934,-1.518 1.952,0 2.838,1.427 2.838,2.512 m -0.036,-2.151 h -0.019 c -0.56,-0.7230004 -1.517,-1.4820004 -3.108,-1.4820004 -1.772,0 -3.163,0.831 -3.163,2.6030004 0,2.205 1.735,2.656 4.067,3.018 1.319,0.198 2.241,0.326 2.241,1.337 0,1.049 -0.759,1.645 -2.097,1.645 -1.518,0 -2.277,-0.651 -2.332,-2.06 h -1.409 c 0.054,1.807 1.247,3.163 3.723,3.163 1.988,0 3.452,-0.741 3.452,-2.964 v -4.447 c 0,-0.759 0.181,-1.174 0.995,-0.994 h 0.054 V 9.1385896 c -0.181,-0.072 -0.416,-0.145 -0.796,-0.145 -0.957,0 -1.464,0.434 -1.608,1.3920004 m -10.51574,6.488886 h 0.036 c 0.561,0.903 1.537,1.663 2.784,1.663 0.271,0 0.416,-0.037 0.596,-0.109 v -1.41 h -0.054 c -0.217,0.073 -0.361,0.091 -0.651,0.091 -1.446,0 -2.711,-1.085 -2.711,-2.838 V 9.0844764 h -1.464 v 9.3439996 h 1.464 z m -6.35221,0 h 0.036 c 0.561,0.903 1.537,1.663 2.784,1.663 0.271,0 0.416,-0.037 0.596,-0.109 v -1.41 h -0.054 c -0.217,0.073 -0.361,0.091 -0.651,0.091 -1.446,0 -2.711,-1.085 -2.711,-2.838 V 9.0844764 h -1.464 v 9.3439996 h 1.464 z m -10.41682,-2.368091 h 5.621 c -0.09,1.862 -1.048,3.001 -2.729,3.001 -1.735,0 -2.675,-1.302 -2.892,-3.001 m -1.536,-0.759 c 0,2.711 1.771,4.916 4.428,4.916 2.802,0 4.302,-2.169 4.302,-5.259 h -7.23 c 0.108,-1.898 1.138,-3.344 3.018,-3.344 1.356,0 2.26,0.65 2.585,1.916 h 1.428 c -0.434,-2.007 -1.898,-3.145 -4.013,-3.145 -2.856,0 -4.518,2.205 -4.518,4.916 m -3.26121,4.681292 h 1.464 V 9.0846773 h -1.464 z m 0,3.579 h 1.464 v -1.808 h -1.464 z m -11.8722,-1.96e-4 h 10.23 v -1.428 h -4.302 V 9.0844814 h -1.626 V 20.579481 h -4.302 z" />
      <g
         id="g7">
        <path
           id="path329"
           d="m 0,0 c 4.757,-9.463 0.928,-21.114 -8.552,-25.871 -9.463,-4.773 -21.114,-0.928 -25.871,8.535 l -32.202,63.94 c -4.773,9.464 -0.928,21.115 8.536,25.871 2.767,1.392 5.701,2.055 8.618,2.055 7.06,0 13.888,-3.895 17.269,-10.59 z"
           style="fill:#69c3d0;fill-opacity:1;fill-rule:nonzero;stroke:none"
           transform="matrix(0.35277776,0,0,-0.35277776,69.902883,156.76075)"
           clip-path="url(#clipPath330)" />
        <path
           id="path331"
           d="m 0,0 v 0 c -9.467,-4.768 -21.115,-0.924 -25.883,8.543 l -11.485,22.802 c -4.768,9.468 -0.924,21.115 8.544,25.883 v 0 c 9.467,4.769 21.114,0.924 25.882,-8.543 L 8.543,25.883 C 13.312,16.416 9.467,4.768 0,0"
           style="fill:#ea5d11;fill-opacity:1;fill-rule:nonzero;stroke:none"
           transform="matrix(0.35277776,0,0,-0.35277776,87.938603,165.89036)"
           clip-path="url(#clipPath332)" />
        <path
           id="path333"
           d="m 0,0 v 0 c -9.467,-4.768 -21.115,-0.924 -25.883,8.543 v 0 c -4.768,9.467 -0.924,21.115 8.543,25.883 v 0 c 9.468,4.769 21.115,0.924 25.883,-8.543 v 0 C 13.312,16.416 9.467,4.768 0,0"
           style="fill:#ed7511;fill-opacity:1;fill-rule:nonzero;stroke:none"
           transform="matrix(0.35277776,0,0,-0.35277776,76.578162,143.30718)"
           clip-path="url(#clipPath334)" />
        <path
           id="path335"
           d="m 0,0 v 0 c 9.467,-4.768 21.115,-0.924 25.883,8.543 v 0 c 4.768,9.467 0.924,21.115 -8.543,25.883 v 0 C 14.254,35.98 10.936,36.62 7.701,36.447 1.01,36.091 -5.329,32.264 -8.543,25.883 v 0 C -13.312,16.416 -9.467,4.768 0,0"
           style="fill:#53a2da;fill-opacity:1;fill-rule:nonzero;stroke:none"
           transform="matrix(0.35277776,0,0,-0.35277776,39.719878,165.89036)"
           clip-path="url(#clipPath336)" />
        <path
           id="path340"
           d="m 49.410153,131.19312 c -3.338336,1.67781 -4.694766,5.78838 -3.010958,9.12671 v 0 l 11.360149,22.55661 c 1.677812,3.33834 5.788378,4.69477 9.126361,3.01096 v 0 c 3.344686,-1.67781 4.695119,-5.78838 3.017308,-9.12671 v 0 L 58.542864,134.20408 c -1.192742,-2.3622 -3.601861,-3.73592 -6.092472,-3.73592 v 0 c -1.029053,0 -2.06375,0.23389 -3.040239,0.72496"
           style="fill:url(#linearGradient340);stroke:none;stroke-width:0.352778" />
        <path
           id="path345"
           d="m 77.769957,145.70146 c -3.339747,1.68204 -4.696177,5.7912 -3.014133,9.13094 v 0 l 4.051653,8.04404 c 1.682397,3.3401 5.791199,4.69618 9.131299,3.01378 v 0 c 3.339747,-1.68204 4.695825,-5.7912 3.013428,-9.13094 v 0 l -4.0513,-8.04369 c -1.192036,-2.36643 -3.601155,-3.73697 -6.092825,-3.73662 v 0 c -1.024819,0 -2.064455,0.23213 -3.038122,0.72249"
           style="fill:url(#linearGradient1);stroke:none;stroke-width:0.352778" />
        <path
           id="path350"
           d="m 77.769957,145.70146 c -3.339747,1.68204 -4.696177,5.7912 -3.014133,9.13094 v 0 l 4.051653,8.04404 c 1.682397,3.3401 5.791199,4.69618 9.131299,3.01378 v 0 c 3.339747,-1.68204 4.695825,-5.7912 3.013428,-9.13094 v 0 l -4.0513,-8.04369 c -1.192036,-2.36643 -3.601155,-3.73697 -6.092825,-3.73662 v 0 c -1.024819,0 -2.064455,0.23213 -3.038122,0.72249"
           style="fill:url(#linearGradient2);stroke:none;stroke-width:0.352778" />
        <path
           id="path355"
           d="m 70.461108,131.16243 c -3.339747,1.6824 -4.696178,5.79085 -3.014133,9.13094 v 0 c 1.682397,3.33975 5.791199,4.69583 9.131299,3.01379 v 0 c 3.339747,-1.68205 4.695825,-5.7912 3.013781,-9.13095 v 0 c -1.191684,-2.36608 -3.601156,-3.73662 -6.092472,-3.73662 v 0 c -1.025173,3.5e-4 -2.064809,0.23248 -3.038475,0.72284"
           style="fill:url(#linearGradient3);stroke:none;stroke-width:0.352778" />
        <path
           id="path360"
           d="m 70.461108,131.16243 c -3.339747,1.6824 -4.696178,5.79085 -3.014133,9.13094 v 0 c 1.682397,3.33975 5.791199,4.69583 9.131299,3.01379 v 0 c 3.339747,-1.68205 4.695825,-5.7912 3.013781,-9.13095 v 0 c -1.191684,-2.36608 -3.601156,-3.73662 -6.092472,-3.73662 v 0 c -1.025173,3.5e-4 -2.064809,0.23248 -3.038475,0.72284"
           style="fill:url(#linearGradient4);stroke:none;stroke-width:0.352778" />
        <path
           id="path365"
           d="m 42.436795,153.03253 c -2.360436,0.12594 -4.596694,1.47567 -5.730874,3.72675 v 0 c -1.682045,3.33974 -0.325967,7.4489 3.014133,9.13094 v 0 c 3.339747,1.6824 7.448549,0.32632 9.130946,-3.01378 v 0 c 1.682045,-3.33974 0.325614,-7.44855 -3.014133,-9.13059 v 0 c -0.973666,-0.49071 -2.013302,-0.72284 -3.038827,-0.72284 v 0 c -0.12065,0 -0.2413,0.003 -0.361245,0.01"
           style="fill:url(#linearGradient5);stroke:none;stroke-width:0.352778" />
        <path
           id="path370"
           d="m 42.436795,153.03253 c -2.360436,0.12594 -4.596694,1.47567 -5.730874,3.72675 v 0 c -1.682045,3.33974 -0.325967,7.4489 3.014133,9.13094 v 0 c 3.339747,1.6824 7.448549,0.32632 9.130946,-3.01378 v 0 c 1.682045,-3.33974 0.325614,-7.44855 -3.014133,-9.13059 v 0 c -0.973666,-0.49071 -2.013302,-0.72284 -3.038827,-0.72284 v 0 c -0.12065,0 -0.2413,0.003 -0.361245,0.01"
           style="fill:url(#linearGradient6);stroke:none;stroke-width:0.352778" />
        <path
           id="path375"
           d="m 42.436795,153.03253 c -2.360436,0.12594 -4.596694,1.47567 -5.730874,3.72675 v 0 c -1.682045,3.33974 -0.325967,7.4489 3.014133,9.13094 v 0 c 3.339747,1.6824 7.448549,0.32632 9.130946,-3.01378 v 0 c 1.682045,-3.33974 0.325614,-7.44855 -3.014133,-9.13059 v 0 c -0.973666,-0.49071 -2.013302,-0.72284 -3.038827,-0.72284 v 0 c -0.12065,0 -0.2413,0.003 -0.361245,0.01"
           style="fill:url(#linearGradient7);stroke:none;stroke-width:0.352778" />
      </g>
    </g>
  </g>
</svg>
